<svg width="1572" height="168" viewBox="0 0 1572 168" fill="none" xmlns="http://www.w3.org/2000/svg">
<path d="M122 45L37 1.99998C3.80545 -14.7926 -24.9024 156.133 37 161C41.8666 161.383 44.6252 161.256 49.5 161C80.0252 159.399 91.4612 132.815 122 131.5C156.184 130.028 170.288 161.55 204.5 161C237.245 160.474 250.251 131.431 283 131.5C315.567 131.569 328.493 159.031 361 161C399.776 163.349 417.403 127.094 456 131.5C484.405 134.743 494.53 158.393 523 161C559.095 164.305 574.763 130.707 611 131.5C645.024 132.245 659.016 162.82 693 161C722.623 159.414 733.419 133.734 763 131.5C799.143 128.77 814.755 161.189 851 161C886.69 160.814 901.869 129.439 937.5 131.5C968.016 133.265 979.514 158.772 1010 161C1047.26 163.723 1063.67 130.089 1101 131.5C1134.46 132.764 1148.02 160.363 1181.5 161C1216.82 161.672 1234.78 119.98 1267 131.5L1349.5 161C1381.72 172.52 1387.91 131.655 1416.5 131.5C1445.45 131.343 1456.05 155.666 1484.5 161C1508.11 165.426 1524.78 172.25 1546 161C1586.02 139.781 1571.26 82.6032 1546 45C1529.66 20.674 1513.77 3.35666 1484.5 1.99998C1453.11 0.545437 1447.84 42.7813 1416.5 45C1381.12 47.5046 1371.9 -0.157473 1336.5 1.99998C1304.64 3.94134 1298.79 42.1926 1267 45C1229.77 48.2875 1218.86 1.07999 1181.5 1.99998C1145.87 2.8773 1136.6 43.2481 1101 45C1061.74 46.932 1049.13 -1.68553 1010 1.99998C977.227 5.08661 970.328 42.5662 937.5 45C899.879 47.789 888.723 2.25716 851 1.99998C812.751 1.73923 801.072 48.6793 763 45C731.066 41.9139 725.009 4.17635 693 1.99998C656.924 -0.452906 647.144 43.9713 611 45C572.766 46.0882 560.992 -2.42957 523 1.99998C492.119 5.60045 486.762 40.491 456 45C415.707 50.906 401.597 -1.20515 361 1.99998C326.325 4.73759 317.783 44.9062 283 45C248.046 45.0942 239.447 2.72198 204.5 1.99998C168.176 1.24953 155.195 61.7925 122 45Z" fill="#FFDADA" stroke="#FFDADA"/>
</svg>
